<svg version="1.1" xmlns="http://www.w3.org/2000/svg" xmlns:xlink="http://www.w3.org/1999/xlink" width="569" height="392.00001" viewBox="0,0,569,392.00001"><g transform="translate(44.5,16.2)"><g data-paper-data="{&quot;isPaintingLayer&quot;:true}" fill="#a4a4a4" fill-rule="nonzero" stroke="none" stroke-width="0" stroke-linecap="butt" stroke-linejoin="miter" stroke-miterlimit="10" stroke-dasharray="" stroke-dashoffset="0" style="mix-blend-mode: normal"><path d="M-10.5,375.80002v-30h503v30z"/><path d="M463.5,363.80002v-375h61v375z"/><path d="M490.5,-16.2v30h-503v-30z" data-paper-data="{&quot;index&quot;:null}"/><path d="M16.5,-4.2v375h-61v-375z" data-paper-data="{&quot;index&quot;:null}"/><path d="M146.87012,248.2813l-98.82305,-112.84504l27.08281,-23.71753l98.82305,112.84504z"/><path d="M309.5,217.60002v-22c0,0 43.90311,35.50989 83,33c41.82254,-2.68487 79,-33 79,-33v22c0,0 -34.8354,30 -81,30c-42.83128,0 -81,-30 -81,-30z"/></g></g></svg>